<svg version="1.2" baseProfile="tiny" viewBox="0 0 18.000 16.940" xmlns:xlink="http://www.w3.org/1999/xlink" xmlns="http://www.w3.org/2000/svg">
<path style="fill:#ffffff;" d="M10.603,4.59l-0.08,1.305c-0.013,0.186-0.176,0.361-0.368,0.387L9.679,6.345   C9.585,6.358,9.462,6.368,9.336,6.372C9.109,6.979,8.739,7.536,8.242,7.988C8.288,8.102,8.325,8.215,8.35,8.303l0.128,0.452   c0.048,0.182-0.052,0.399-0.223,0.483l-1.2,0.583C6.883,9.905,6.646,9.851,6.528,9.704L6.232,9.335   C6.175,9.261,6.106,9.161,6.039,9.061c-0.669,0.115-1.347,0.066-1.98-0.122C3.979,9.034,3.895,9.125,3.83,9.192L3.492,9.524   C3.355,9.655,3.112,9.679,2.953,9.577L1.834,8.855c-0.158-0.104-0.232-0.33-0.158-0.501l0.18-0.436   C1.89,7.832,1.945,7.725,2.004,7.617C1.792,7.371,1.606,7.1,1.453,6.804c-0.153-0.301-0.261-0.609-0.336-0.92   C0.994,5.866,0.871,5.839,0.78,5.818l-0.463-0.12C0.129,5.647-0.012,5.454,0.001,5.271l0.08-1.305   C0.094,3.78,0.259,3.605,0.449,3.58l0.475-0.065c0.095-0.012,0.218-0.021,0.342-0.027c0.229-0.606,0.599-1.163,1.095-1.615   C2.316,1.758,2.276,1.643,2.252,1.555L2.126,1.103C2.077,0.924,2.176,0.706,2.348,0.625L3.547,0.04   c0.172-0.084,0.41-0.031,0.527,0.117l0.294,0.368C4.429,0.6,4.497,0.698,4.563,0.8c0.67-0.115,1.349-0.067,1.984,0.119   c0.077-0.093,0.16-0.183,0.228-0.25l0.338-0.332C7.248,0.202,7.488,0.178,7.65,0.283l1.119,0.721C8.928,1.107,9,1.334,8.928,1.506   L8.747,1.939C8.71,2.028,8.657,2.135,8.598,2.243C8.809,2.49,8.997,2.758,9.149,3.056c0.153,0.3,0.261,0.608,0.336,0.919   c0.123,0.019,0.246,0.042,0.337,0.067l0.464,0.119C10.473,4.21,10.615,4.403,10.603,4.59z M4.433,2.41   C3.006,2.878,2.238,4.384,2.718,5.774c0.478,1.391,2.022,2.142,3.45,1.675c1.428-0.465,2.197-1.974,1.716-3.367   C7.407,2.692,5.862,1.941,4.433,2.41z M17.938,11.142L18,12.448c0.008,0.188-0.136,0.377-0.322,0.424l-0.466,0.114   c-0.092,0.021-0.213,0.043-0.338,0.062c-0.159,0.627-0.467,1.219-0.911,1.72c0.058,0.109,0.107,0.217,0.143,0.303l0.176,0.436   c0.068,0.175-0.006,0.401-0.168,0.503l-1.13,0.705c-0.16,0.102-0.402,0.073-0.536-0.062l-0.333-0.335   c-0.066-0.068-0.146-0.161-0.224-0.252c-0.653,0.183-1.333,0.206-1.983,0.084c-0.068,0.104-0.141,0.203-0.198,0.275l-0.301,0.366   c-0.121,0.144-0.358,0.193-0.528,0.107l-1.192-0.6c-0.169-0.087-0.267-0.304-0.213-0.482l0.132-0.451   c0.024-0.09,0.067-0.201,0.113-0.315c-0.237-0.222-0.451-0.472-0.637-0.749c-0.186-0.283-0.327-0.579-0.436-0.879   c-0.124-0.007-0.248-0.02-0.342-0.032l-0.474-0.07c-0.191-0.031-0.353-0.208-0.36-0.394l-0.063-1.305   c-0.007-0.187,0.137-0.377,0.324-0.424l0.465-0.113c0.093-0.022,0.214-0.045,0.336-0.062C8.693,10.393,9,9.803,9.444,9.302   c-0.057-0.11-0.11-0.219-0.142-0.305L9.127,8.56c-0.069-0.172,0.005-0.4,0.168-0.497l1.128-0.708   c0.162-0.101,0.404-0.074,0.538,0.061l0.332,0.336c0.066,0.067,0.146,0.157,0.223,0.251c0.654-0.183,1.333-0.207,1.986-0.087   c0.066-0.101,0.139-0.201,0.198-0.274L14,7.278c0.119-0.147,0.356-0.196,0.528-0.109l1.192,0.599   c0.169,0.089,0.266,0.306,0.212,0.486l-0.132,0.449c-0.026,0.091-0.067,0.204-0.114,0.316c0.237,0.223,0.452,0.473,0.638,0.751   c0.185,0.283,0.326,0.578,0.435,0.879c0.124,0.006,0.248,0.018,0.342,0.031l0.476,0.07C17.767,10.778,17.929,10.955,17.938,11.142z    M11.564,9.619c-1.369,0.615-1.966,2.192-1.336,3.525c0.627,1.333,2.246,1.918,3.613,1.305c1.369-0.612,1.968-2.191,1.337-3.527   C14.552,9.589,12.934,9.005,11.564,9.619z"/>
</svg>